<?xml version="1.0" encoding="UTF-8"?>
<svg width="28px" height="26px" viewBox="0 0 28 26" version="1.1" xmlns="http://www.w3.org/2000/svg" xmlns:xlink="http://www.w3.org/1999/xlink">
    <title>icon/logo/colored</title>
    <g id="icon/logo/colored" stroke="none" stroke-width="1" fill="none" fill-rule="evenodd">
        <g id="Logomark/Colored" fill-rule="nonzero">
            <path d="M3.30088605,14.9380401 C8.38868516,9.53866902 13.9547497,4.64781922 19.925525,0.330122433 C19.9873444,0.2851039 20.0143519,0.204016926 19.9925111,0.129004289 C19.9706702,0.0539916528 19.9049093,0.0019796003 19.8294058,0 L9.44986132,0 C8.04458862,0.0694321106 6.82880802,1.03740652 6.40056354,2.42777539 L3.00589963,14.7764177 C2.98512871,14.8564554 3.02053371,14.9407494 3.09117946,14.979456 C3.1618252,15.0181627 3.24888756,15.0009683 3.30088605,14.9380401 Z" id="Path_9" fill="#FF0000"></path>
            <path d="M21.556361,11.9852931 C24.1946274,11.5193345 26.8562947,10.4208061 27.8050276,6.44149209 C28.8313173,2.13656017 25.6468106,-0.225034082 21.9842602,0.0169325425 L16.3794483,20.304797 C16.0237895,21.4498832 15.0245856,22.2516141 13.8635342,22.32349 L11.7133404,22.32349 L15.1051107,10.0709915 C15.1311466,9.99162994 15.1015687,9.9041328 15.0333888,9.85882374 C14.9652088,9.81351468 14.8759492,9.82203825 14.8169473,9.87949215 C9.47575667,14.7110254 4.53705983,19.9985453 0.0530850331,25.6861347 C0.00246841204,25.7374962 -0.0136527385,25.8151186 0.0121073646,25.8834399 C0.0378674676,25.9517612 0.100545473,25.9976175 0.171425927,26 L14.8376737,26 C21.0201497,26 24.4059027,24.0179477 25.631433,19.2857718 C26.6343219,15.4315892 24.6773513,12.802449 21.5583667,12.1228684 C21.5015364,12.1131898 21.4513919,12.0053418 21.556361,11.9852931 Z" id="Path_10" fill="#000000"></path>
        </g>
    </g>
</svg>